<svg width="122" height="64" viewBox="0 0 122 64" fill="none" xmlns="http://www.w3.org/2000/svg">
<path d="M17.465 24.66H8.295L6.825 29H0.56L9.45 4.43H16.38L25.27 29H18.935L17.465 24.66ZM15.925 20.04L12.88 11.045L9.87 20.04H15.925ZM52.8957 9.26C55.3223 9.26 57.2473 9.995 58.6707 11.465C60.1173 12.935 60.8407 14.9767 60.8407 17.59V29H54.8907V18.395C54.8907 17.135 54.5523 16.1667 53.8757 15.49C53.2223 14.79 52.3123 14.44 51.1457 14.44C49.979 14.44 49.0573 14.79 48.3807 15.49C47.7273 16.1667 47.4007 17.135 47.4007 18.395V29H41.4507V18.395C41.4507 17.135 41.1123 16.1667 40.4357 15.49C39.7823 14.79 38.8723 14.44 37.7057 14.44C36.539 14.44 35.6173 14.79 34.9407 15.49C34.2873 16.1667 33.9607 17.135 33.9607 18.395V29H27.9757V9.47H33.9607V11.92C34.5673 11.1033 35.3607 10.4617 36.3407 9.995C37.3207 9.505 38.429 9.26 39.6657 9.26C41.1357 9.26 42.4423 9.575 43.5857 10.205C44.7523 10.835 45.6623 11.7333 46.3157 12.9C46.9923 11.8267 47.914 10.9517 49.0807 10.275C50.2473 9.59833 51.519 9.26 52.8957 9.26ZM68.0364 7.44C66.9864 7.44 66.1231 7.13667 65.4464 6.53C64.7931 5.9 64.4664 5.13 64.4664 4.22C64.4664 3.28667 64.7931 2.51667 65.4464 1.91C66.1231 1.28 66.9864 0.964998 68.0364 0.964998C69.0631 0.964998 69.9031 1.28 70.5564 1.91C71.2331 2.51667 71.5714 3.28667 71.5714 4.22C71.5714 5.13 71.2331 5.9 70.5564 6.53C69.9031 7.13667 69.0631 7.44 68.0364 7.44ZM71.0114 9.47V29H65.0264V9.47H71.0114ZM86.2337 23.925V29H83.1887C81.0187 29 79.327 28.475 78.1137 27.425C76.9004 26.3517 76.2937 24.6133 76.2937 22.21V14.44H73.9137V9.47H76.2937V4.71H82.2787V9.47H86.1987V14.44H82.2787V22.28C82.2787 22.8633 82.4187 23.2833 82.6987 23.54C82.9787 23.7967 83.4454 23.925 84.0987 23.925H86.2337ZM101.572 9.26C103.812 9.26 105.609 10.0067 106.962 11.5C108.316 12.97 108.992 15 108.992 17.59V29H103.042V18.395C103.042 17.0883 102.704 16.0733 102.027 15.35C101.351 14.6267 100.441 14.265 99.2975 14.265C98.1541 14.265 97.2441 14.6267 96.5675 15.35C95.8908 16.0733 95.5525 17.0883 95.5525 18.395V29H89.5675V3.1H95.5525V12.095C96.1591 11.2317 96.9875 10.5433 98.0375 10.03C99.0875 9.51667 100.266 9.26 101.572 9.26ZM22.6248 37.4672V56H18.1104V44.8856L13.9656 56H10.3224L6.1512 44.8592V56H1.6368V37.4672H6.9696L12.1704 50.2976L17.3184 37.4672H22.6248ZM24.9736 48.608C24.9736 47.0944 25.2552 45.7656 25.8184 44.6216C26.3992 43.4776 27.1824 42.5976 28.168 41.9816C29.1536 41.3656 30.2536 41.0576 31.468 41.0576C32.5064 41.0576 33.4128 41.2688 34.1872 41.6912C34.9792 42.1136 35.5864 42.668 36.0088 43.3544V41.2688H40.5232V56H36.0088V53.9144C35.5688 54.6008 34.9528 55.1552 34.1608 55.5776C33.3864 56 32.48 56.2112 31.4416 56.2112C30.2448 56.2112 29.1536 55.9032 28.168 55.2872C27.1824 54.6536 26.3992 53.7648 25.8184 52.6208C25.2552 51.4592 24.9736 50.1216 24.9736 48.608ZM36.0088 48.6344C36.0088 47.508 35.692 46.6192 35.0584 45.968C34.4424 45.3168 33.6856 44.9912 32.788 44.9912C31.8904 44.9912 31.1248 45.3168 30.4912 45.968C29.8752 46.6016 29.5672 47.4816 29.5672 48.608C29.5672 49.7344 29.8752 50.632 30.4912 51.3008C31.1248 51.952 31.8904 52.2776 32.788 52.2776C33.6856 52.2776 34.4424 51.952 35.0584 51.3008C35.692 50.6496 36.0088 49.7608 36.0088 48.6344ZM48.3035 36.464V56H43.7891V36.464H48.3035ZM53.8455 39.7376C53.0535 39.7376 52.4023 39.5088 51.8919 39.0512C51.3991 38.576 51.1527 37.9952 51.1527 37.3088C51.1527 36.6048 51.3991 36.024 51.8919 35.5664C52.4023 35.0912 53.0535 34.8536 53.8455 34.8536C54.6199 34.8536 55.2535 35.0912 55.7463 35.5664C56.2567 36.024 56.5119 36.6048 56.5119 37.3088C56.5119 37.9952 56.2567 38.576 55.7463 39.0512C55.2535 39.5088 54.6199 39.7376 53.8455 39.7376ZM56.0895 41.2688V56H51.5751V41.2688H56.0895ZM68.337 41.1104C70.0618 41.1104 71.4346 41.6736 72.4554 42.8C73.4938 43.9088 74.013 45.44 74.013 47.3936V56H69.525V48.0008C69.525 47.0152 69.2698 46.2496 68.7594 45.704C68.249 45.1584 67.5626 44.8856 66.7002 44.8856C65.8378 44.8856 65.1514 45.1584 64.641 45.704C64.1306 46.2496 63.8754 47.0152 63.8754 48.0008V56H59.361V41.2688H63.8754V43.2224C64.333 42.5712 64.949 42.0608 65.7234 41.6912C66.4978 41.304 67.369 41.1104 68.337 41.1104ZM82.7469 41.0576C83.7853 41.0576 84.6917 41.2688 85.4661 41.6912C86.2581 42.1136 86.8653 42.668 87.2877 43.3544V41.2688H91.8021V55.9736C91.8021 57.3288 91.5293 58.552 90.9837 59.6432C90.4557 60.752 89.6373 61.632 88.5285 62.2832C87.4373 62.9344 86.0733 63.26 84.4365 63.26C82.2541 63.26 80.4853 62.7408 79.1301 61.7024C77.7749 60.6816 77.0005 59.2912 76.8069 57.5312H81.2685C81.4093 58.0944 81.7437 58.5344 82.2717 58.8512C82.7997 59.1856 83.4509 59.3528 84.2253 59.3528C85.1581 59.3528 85.8973 59.08 86.4429 58.5344C87.0061 58.0064 87.2877 57.1528 87.2877 55.9736V53.888C86.8477 54.5744 86.2405 55.1376 85.4661 55.5776C84.6917 56 83.7853 56.2112 82.7469 56.2112C81.5325 56.2112 80.4325 55.9032 79.4469 55.2872C78.4613 54.6536 77.6781 53.7648 77.0973 52.6208C76.5341 51.4592 76.2525 50.1216 76.2525 48.608C76.2525 47.0944 76.5341 45.7656 77.0973 44.6216C77.6781 43.4776 78.4613 42.5976 79.4469 41.9816C80.4325 41.3656 81.5325 41.0576 82.7469 41.0576ZM87.2877 48.6344C87.2877 47.508 86.9709 46.6192 86.3373 45.968C85.7213 45.3168 84.9645 44.9912 84.0669 44.9912C83.1693 44.9912 82.4037 45.3168 81.7701 45.968C81.1541 46.6016 80.8461 47.4816 80.8461 48.608C80.8461 49.7344 81.1541 50.632 81.7701 51.3008C82.4037 51.952 83.1693 52.2776 84.0669 52.2776C84.9645 52.2776 85.7213 51.952 86.3373 51.3008C86.9709 50.6496 87.2877 49.7608 87.2877 48.6344ZM94.1705 48.608C94.1705 47.0944 94.4521 45.7656 95.0153 44.6216C95.5961 43.4776 96.3793 42.5976 97.3649 41.9816C98.3505 41.3656 99.4505 41.0576 100.665 41.0576C101.703 41.0576 102.61 41.2688 103.384 41.6912C104.176 42.1136 104.783 42.668 105.206 43.3544V41.2688H109.72V56H105.206V53.9144C104.766 54.6008 104.15 55.1552 103.358 55.5776C102.583 56 101.677 56.2112 100.638 56.2112C99.4417 56.2112 98.3505 55.9032 97.3649 55.2872C96.3793 54.6536 95.5961 53.7648 95.0153 52.6208C94.4521 51.4592 94.1705 50.1216 94.1705 48.608ZM105.206 48.6344C105.206 47.508 104.889 46.6192 104.255 45.968C103.639 45.3168 102.882 44.9912 101.985 44.9912C101.087 44.9912 100.322 45.3168 99.6881 45.968C99.0721 46.6016 98.7641 47.4816 98.7641 48.608C98.7641 49.7344 99.0721 50.632 99.6881 51.3008C100.322 51.952 101.087 52.2776 101.985 52.2776C102.882 52.2776 103.639 51.952 104.255 51.3008C104.889 50.6496 105.206 49.7608 105.206 48.6344Z" fill="white"/>
<circle cx="117.5" cy="51.5" r="4.5" fill="url(#paint0_linear_507_13)"/>
<defs>
<linearGradient id="paint0_linear_507_13" x1="117.5" y1="47" x2="117.5" y2="56" gradientUnits="userSpaceOnUse">
<stop stop-color="#DA7C25"/>
<stop offset="1" stop-color="#B923E1"/>
</linearGradient>
</defs>
</svg>
